<svg width="86" height="109" viewBox="0 0 86 109" fill="none" xmlns="http://www.w3.org/2000/svg">
<path d="M28.2708 70.3911L28.4723 69.8842C30.6664 64.528 32.9309 60.4715 35.2658 57.7147C37.6006 54.9579 40.1454 52.9857 42.9001 51.7979C45.6548 50.6102 48.7422 49.7341 52.1623 49.1695C54.2267 48.8161 56.1948 48.2125 58.0668 47.3587C59.95 46.4767 61.6355 45.2717 63.1233 43.7435C64.6393 42.2264 65.8395 40.3556 66.7237 38.1309C67.8206 35.3712 68.1242 32.7202 67.6348 30.1778C67.1453 27.6354 66.0346 25.3841 64.3028 23.4241C62.571 21.464 60.3815 19.9579 57.7345 18.9058C55.4253 17.988 53.0104 17.5825 50.4897 17.6893C47.9689 17.7961 45.5819 18.5919 43.3287 20.0768C41.0755 21.5617 39.1758 23.9208 37.6298 27.1541L26.9853 22.9233C29.1133 18.2256 31.9809 14.6208 35.588 12.1088C39.2233 9.60803 43.2577 8.19523 47.6912 7.8704C52.1528 7.55678 56.6646 8.30657 61.2266 10.1198C66.1828 12.0897 70.0995 14.7878 72.9769 18.214C75.8824 21.6515 77.6521 25.4853 78.2859 29.7156C78.948 33.957 78.4059 38.2742 76.6599 42.6672C75.4287 45.7648 73.8363 48.3765 71.8827 50.5022C69.9573 52.6391 67.7158 54.3406 65.1582 55.6067C62.6288 56.8839 59.8228 57.7904 56.7403 58.3261C53.6466 58.89 51.0121 59.7342 48.8369 60.8587C46.6728 61.9551 44.7884 63.5377 43.1835 65.6063C41.5787 67.675 40.0542 70.4441 38.61 73.9136L38.4085 74.4205L28.2708 70.3911ZM23.7385 97.5464C21.6546 96.7181 20.1631 95.2611 19.2638 93.1754C18.3645 91.0897 18.329 89.0049 19.1573 86.9211C19.9855 84.8372 21.4425 83.3457 23.5282 82.4464C25.6139 81.5471 27.6987 81.5116 29.7825 82.3398C31.8664 83.1681 33.358 84.6251 34.2572 86.7108C35.1565 88.7965 35.192 90.8813 34.3638 92.9651C33.8153 94.345 32.9597 95.4723 31.7967 96.347C30.662 97.233 29.3774 97.7985 27.9431 98.0436C26.548 98.2717 25.1465 98.106 23.7385 97.5464Z" fill="#4383FA"/>
</svg>
