<svg width="117" height="121" viewBox="0 0 117 121" fill="none" xmlns="http://www.w3.org/2000/svg">
<path d="M115.392 37.1962L90.3881 27.2563C88.0358 22.4182 84.8497 17.9533 80.8455 14.0486C71.568 5.02999 59.5046 0.613733 47.5045 0.757965C47.4515 0.754989 47.4266 0.727001 47.3674 0.739628C47.3083 0.752255 47.2865 0.761666 47.2274 0.774293C35.218 0.987132 23.2718 5.76046 14.2597 15.043C5.49001 24.0786 0.757147 35.9839 0.929503 48.5743C1.10186 61.1648 6.16461 72.9348 15.1802 81.7048C19.6771 86.0944 24.9073 89.4566 30.5778 91.7109C33.3508 92.8132 36.251 93.641 39.2037 94.2004L36.8714 100.067C36.4124 101.222 36.9811 102.514 38.1183 102.966L82.2676 120.517C83.4205 120.976 84.7118 120.405 85.1646 119.266L116.638 40.0951C117.091 38.9561 116.544 37.6545 115.392 37.1962ZM50.8182 90.3975L50.3083 53.2433L76.9124 79.1242C69.727 85.8082 60.6224 89.7416 50.8182 90.3975ZM15.9767 19.8453L42.5807 45.7262L5.48443 46.2834C5.84628 36.7964 9.35011 27.4381 15.9767 19.8453ZM75.4356 58.7875L93.3231 60.1706L89.3967 70.0475L75.4356 58.7875ZM68.5962 53.7556C67.6183 53.6741 66.7038 54.2501 66.344 55.1551C65.9842 56.0601 66.2537 57.1068 67.0206 57.7189L83.666 71.1663C82.5726 72.8276 81.3763 74.43 80.0584 75.9299L53.4295 50.021L90.5943 49.473C90.5133 51.4465 90.2829 53.4328 89.931 55.407L68.5962 53.7556ZM53.3664 45.5509L79.2744 18.8629C82.3466 22.1622 84.8061 25.8684 86.6619 29.8224C86.6806 29.866 86.6994 29.9096 86.7181 29.9532C88.902 34.6702 90.1929 39.7729 90.5312 45.0029L53.3664 45.5509ZM76.0406 15.7885L50.1606 42.4515L49.6445 5.31292C59.1202 5.66484 68.47 9.14691 76.0406 15.7885ZM45.1795 5.38094L45.6956 42.5195L19.0916 16.6386C26.4946 9.77011 35.7428 6.02023 45.1795 5.38094ZM5.54749 50.7535L42.6438 50.1963L16.7637 76.8593C9.91121 69.4552 6.17575 60.2005 5.54749 50.7535ZM19.9633 79.9744L45.8433 53.3113L46.3532 90.4655C36.5537 90.1113 27.3313 86.445 19.9633 79.9744ZM81.8457 115.543L41.8403 99.6394L43.7508 94.8336C45.3732 94.9727 47.005 95.0431 48.6365 95.0232C61.2126 94.8369 72.9746 89.7554 81.7443 80.7198C83.7587 78.6477 85.5705 76.4046 87.1517 74.0156L88.9443 75.451C89.122 75.5939 89.3121 75.7057 89.5147 75.7862C89.9509 75.9596 90.4429 75.9926 90.9066 75.8697C91.5914 75.6902 92.1511 75.19 92.4116 74.5346L98.5835 59.0094C98.8441 58.3541 98.7806 57.6061 98.406 57.0054C98.0314 56.4048 97.3956 56.0075 96.6763 55.9564L94.3812 55.7848C95.7172 48.0222 95.0791 40.2337 92.6982 33.0172L111.642 40.548L81.8301 115.537L81.8457 115.543Z" fill="#FA8F43"/>
</svg>
